<?xml version="1.0" encoding="UTF-8" standalone="no"?>
<svg
   viewBox="0 0 24 24"
   version="1.1"
   id="svg2"
   sodipodi:docname="bilibili.svg"
   inkscape:version="1.3 (0e150ed6c4, 2023-07-21)"
   xmlns:inkscape="http://www.inkscape.org/namespaces/inkscape"
   xmlns:sodipodi="http://sodipodi.sourceforge.net/DTD/sodipodi-0.dtd"
   xmlns="http://www.w3.org/2000/svg"
   xmlns:svg="http://www.w3.org/2000/svg">
  <defs
     id="defs2" />
  <sodipodi:namedview
     id="namedview2"
     pagecolor="#505050"
     bordercolor="#eeeeee"
     borderopacity="1"
     inkscape:showpageshadow="0"
     inkscape:pageopacity="0"
     inkscape:pagecheckerboard="0"
     inkscape:deskcolor="#505050"
     inkscape:zoom="32.375"
     inkscape:cx="11.984556"
     inkscape:cy="12"
     inkscape:window-width="1920"
     inkscape:window-height="991"
     inkscape:window-x="-9"
     inkscape:window-y="-9"
     inkscape:window-maximized="1"
     inkscape:current-layer="svg2" />
  <g
     id="g2">
    <path
       d="M0 0h24v24H0z"
       fill="none"
       id="path1" />
    <path
       d="M7.172 2.757L10.414 6h3.171l3.243-3.242a1 1 0 0 1 1.415 1.415l-1.829 1.827L18.5 6A3.5 3.5 0 0 1 22 9.5v8a3.5 3.5 0 0 1-3.5 3.5h-13A3.5 3.5 0 0 1 2 17.5v-8A3.5 3.5 0 0 1 5.5 6h2.085L5.757 4.171a1 1 0 0 1 1.415-1.415zM18.5 8h-13a1.5 1.5 0 0 0-1.493 1.356L4 9.5v8a1.5 1.5 0 0 0 1.356 1.493L5.5 19h13a1.5 1.5 0 0 0 1.493-1.356L20 17.5v-8A1.5 1.5 0 0 0 18.5 8zM8 11a1 1 0 0 1 1 1v2a1 1 0 0 1-2 0v-2a1 1 0 0 1 1-1zm8 0a1 1 0 0 1 1 1v2a1 1 0 0 1-2 0v-2a1 1 0 0 1 1-1z"
       id="path2"
       style="fill:#6d97ff;fill-opacity:1" />
  </g>
</svg>
